<?xml version="1.0" encoding="UTF-8" standalone="no"?>
<!DOCTYPE svg PUBLIC "-//W3C//DTD SVG 1.1//EN" "http://www.w3.org/Graphics/SVG/1.1/DTD/svg11.dtd">
<svg width="100%" height="100%" viewBox="0 0 2048 2048" version="1.1" xmlns="http://www.w3.org/2000/svg" xmlns:xlink="http://www.w3.org/1999/xlink" xml:space="preserve" xmlns:serif="http://www.serif.com/" style="fill-rule:evenodd;clip-rule:evenodd;stroke-linejoin:round;stroke-miterlimit:2;">
    <g transform="matrix(1.6233,0,0,1.51875,-644.738,-492.789)">
        <path d="M1630.24,1030.08L1630.24,1565.51C1630.24,1589.56 1611.97,1609.09 1589.47,1609.09L466.523,1609.09C444.019,1609.09 425.749,1589.56 425.749,1565.51L425.749,1030.08C425.749,1006.03 444.019,986.5 466.523,986.5L1589.47,986.5C1611.97,986.5 1630.24,1006.03 1630.24,1030.08Z" style="fill:rgb(62,58,58);"/>
    </g>
    <g transform="matrix(1.62262,0,0,3.33592,-620.892,-2744.08)">
        <path d="M1186.1,1159.7L1186.1,1161.92C1186.1,1163.87 1182.86,1165.44 1178.86,1165.44L489.448,1165.44C485.456,1165.44 482.216,1163.87 482.216,1161.92L482.216,1159.7C482.216,1157.76 485.456,1156.18 489.448,1156.18L1178.86,1156.18C1182.86,1156.18 1186.1,1157.76 1186.1,1159.7Z" style="fill:rgb(217,194,78);"/>
    </g>
    <g transform="matrix(0.0740777,0,0,3.33592,1305.9,-2744.08)">
        <path d="M1186.1,1159.7L1186.1,1161.92C1186.1,1163.87 1115.11,1165.44 1027.68,1165.44L640.633,1165.44C553.2,1165.44 482.216,1163.87 482.216,1161.92L482.216,1159.7C482.216,1157.76 553.2,1156.18 640.633,1156.18L1027.68,1156.18C1115.11,1156.18 1186.1,1157.76 1186.1,1159.7Z" style="fill:rgb(78,127,217);"/>
    </g>
    <g transform="matrix(0.468975,0,0,3.33592,126.892,-2441.02)">
        <path d="M1186.1,1159.7L1186.1,1161.92C1186.1,1163.87 1174.88,1165.44 1161.07,1165.44L507.239,1165.44C493.428,1165.44 482.216,1163.87 482.216,1161.92L482.216,1159.7C482.216,1157.76 493.428,1156.18 507.239,1156.18L1161.07,1156.18C1174.88,1156.18 1186.1,1157.76 1186.1,1159.7Z" style="fill:rgb(217,194,78);"/>
    </g>
    <g transform="matrix(0.104997,0,0,3.33592,110.931,-2044.19)">
        <path d="M1186.1,1159.7L1186.1,1161.92C1186.1,1163.87 1136.01,1165.44 1074.33,1165.44L593.983,1165.44C532.297,1165.44 482.216,1163.87 482.216,1161.92L482.216,1159.7C482.216,1157.76 532.297,1156.18 593.983,1156.18L1074.33,1156.18C1136.01,1156.18 1186.1,1157.76 1186.1,1159.7Z" style="fill:rgb(78,141,217);"/>
    </g>
    <g transform="matrix(0.328286,0,0,3.33592,99.8205,-2143.7)">
        <path d="M1186.1,1159.7L1186.1,1161.92C1186.1,1163.87 1170.08,1165.44 1150.35,1165.44L517.963,1165.44C498.233,1165.44 482.216,1163.87 482.216,1161.92L482.216,1159.7C482.216,1157.76 498.233,1156.18 517.963,1156.18L1150.35,1156.18C1170.08,1156.18 1186.1,1157.76 1186.1,1159.7Z" style="fill:rgb(78,217,114);"/>
    </g>
    <g transform="matrix(0.225828,0,0,3.33592,449.993,-2143.7)">
        <path d="M1186.1,1159.7L1186.1,1161.92C1186.1,1163.87 1162.81,1165.44 1134.13,1165.44L534.181,1165.44C505.5,1165.44 482.216,1163.87 482.216,1161.92L482.216,1159.7C482.216,1157.76 505.5,1156.18 534.181,1156.18L1134.13,1156.18C1162.81,1156.18 1186.1,1157.76 1186.1,1159.7Z" style="fill:rgb(217,194,78);"/>
    </g>
    <g transform="matrix(0.383762,0,0,3.33592,594.011,-2143.7)">
        <path d="M1186.1,1159.7L1186.1,1161.92C1186.1,1163.87 1172.39,1165.44 1155.52,1165.44L512.795,1165.44C495.918,1165.44 482.216,1163.87 482.216,1161.92L482.216,1159.7C482.216,1157.76 495.918,1156.18 512.795,1156.18L1155.52,1156.18C1172.39,1156.18 1186.1,1157.76 1186.1,1159.7Z" style="fill:rgb(222,10,60);"/>
    </g>
    <g transform="matrix(0.251946,0,0,3.33592,801.845,-2242.29)">
        <path d="M1186.1,1159.7L1186.1,1161.92C1186.1,1163.87 1165.23,1165.44 1139.52,1165.44L528.794,1165.44C503.087,1165.44 482.216,1163.87 482.216,1161.92L482.216,1159.7C482.216,1157.76 503.087,1156.18 528.794,1156.18L1139.52,1156.18C1165.23,1156.18 1186.1,1157.76 1186.1,1159.7Z" style="fill:rgb(222,10,60);"/>
    </g>
    <g transform="matrix(0.877565,0,0,3.33592,-165.05,-2242.29)">
        <path d="M1186.1,1159.7L1186.1,1161.92C1186.1,1163.87 1180.1,1165.44 1172.72,1165.44L495.588,1165.44C488.208,1165.44 482.216,1163.87 482.216,1161.92L482.216,1159.7C482.216,1157.76 488.208,1156.18 495.588,1156.18L1172.72,1156.18C1180.1,1156.18 1186.1,1157.76 1186.1,1159.7Z" style="fill:rgb(217,194,78);"/>
    </g>
    <g transform="matrix(0.365983,0,0,3.33592,81.6427,-2338.82)">
        <path d="M1186.1,1159.7L1186.1,1161.92C1186.1,1163.87 1171.73,1165.44 1154.03,1165.44L514.281,1165.44C496.583,1165.44 482.216,1163.87 482.216,1161.92L482.216,1159.7C482.216,1157.76 496.583,1156.18 514.281,1156.18L1154.03,1156.18C1171.73,1156.18 1186.1,1157.76 1186.1,1159.7Z" style="fill:rgb(223,10,60);"/>
    </g>
    <g transform="matrix(0.299003,0,0,3.33592,424.42,-2338.82)">
        <path d="M1186.1,1159.7L1186.1,1161.92C1186.1,1163.87 1168.51,1165.44 1146.85,1165.44L521.463,1165.44C499.802,1165.44 482.216,1163.87 482.216,1161.92L482.216,1159.7C482.216,1157.76 499.802,1156.18 521.463,1156.18L1146.85,1156.18C1168.51,1156.18 1186.1,1157.76 1186.1,1159.7Z" style="fill:rgb(79,217,113);"/>
    </g>
    <g transform="matrix(0.0784549,0,0,3.33592,771.064,-2338.82)">
        <path d="M1186.1,1159.7L1186.1,1161.92C1186.1,1163.87 1119.07,1165.44 1036.52,1165.44L631.795,1165.44C549.24,1165.44 482.216,1163.87 482.216,1161.92L482.216,1159.7C482.216,1157.76 549.24,1156.18 631.795,1156.18L1036.52,1156.18C1119.07,1156.18 1186.1,1157.76 1186.1,1159.7Z" style="fill:rgb(78,141,217);"/>
    </g>
    <g transform="matrix(0.625564,0,0,3.33592,-43.5313,-2544.56)">
        <path d="M1186.1,1159.7L1186.1,1161.92C1186.1,1163.87 1177.69,1165.44 1167.34,1165.44L500.975,1165.44C490.621,1165.44 482.216,1163.87 482.216,1161.92L482.216,1159.7C482.216,1157.76 490.621,1156.18 500.975,1156.18L1167.34,1156.18C1177.69,1156.18 1186.1,1157.76 1186.1,1159.7Z" style="fill:rgb(217,194,78);"/>
    </g>
    <g transform="matrix(0.401191,0,0,3.33592,541.17,-2544.56)">
        <path d="M1186.1,1159.7L1186.1,1161.92C1186.1,1163.87 1172.99,1165.44 1156.85,1165.44L511.467,1165.44C495.322,1165.44 482.216,1163.87 482.216,1161.92L482.216,1159.7C482.216,1157.76 495.322,1156.18 511.467,1156.18L1156.85,1156.18C1172.99,1156.18 1186.1,1157.76 1186.1,1159.7Z" style="fill:rgb(79,217,113);"/>
    </g>
    <g transform="matrix(0.094352,0,0,3.33592,1009.73,-2544.56)">
        <path d="M1186.1,1159.7L1186.1,1161.92C1186.1,1163.87 1130.36,1165.44 1061.72,1165.44L606.593,1165.44C537.947,1165.44 482.216,1163.87 482.216,1161.92L482.216,1159.7C482.216,1157.76 537.947,1156.18 606.593,1156.18L1061.72,1156.18C1130.36,1156.18 1186.1,1157.76 1186.1,1159.7Z" style="fill:rgb(78,141,217);"/>
    </g>
    <g transform="matrix(0.139042,0,0,3.33592,191.077,-2644.02)">
        <path d="M1186.1,1159.7L1186.1,1161.92C1186.1,1163.87 1148.28,1165.44 1101.69,1165.44L566.616,1165.44C520.034,1165.44 482.216,1163.87 482.216,1161.92L482.216,1159.7C482.216,1157.76 520.034,1156.18 566.616,1156.18L1101.69,1156.18C1148.28,1156.18 1186.1,1157.76 1186.1,1159.7Z" style="fill:rgb(78,217,114);"/>
    </g>
    <g transform="matrix(0.271574,0,0,3.33592,247.166,-2644.02)">
        <path d="M1186.1,1159.7L1186.1,1161.92C1186.1,1163.87 1166.73,1165.44 1142.88,1165.44L525.428,1165.44C501.578,1165.44 482.216,1163.87 482.216,1161.92L482.216,1159.7C482.216,1157.76 501.578,1156.18 525.428,1156.18L1142.88,1156.18C1166.73,1156.18 1186.1,1157.76 1186.1,1159.7Z" style="fill:rgb(223,10,60);"/>
    </g>
    <g transform="matrix(0.550933,0,0,3.33592,341.967,-2644.02)">
        <path d="M1186.1,1159.7L1186.1,1161.92C1186.1,1163.87 1176.55,1165.44 1164.8,1165.44L503.516,1165.44C491.76,1165.44 482.216,1163.87 482.216,1161.92L482.216,1159.7C482.216,1157.76 491.76,1156.18 503.516,1156.18L1164.8,1156.18C1176.55,1156.18 1186.1,1157.76 1186.1,1159.7Z" style="fill:rgb(217,194,78);"/>
    </g>
    <g transform="matrix(10.462,0,0,9.78821,-4709.77,-3893.81)">
        <g transform="matrix(50,0,0,50,625.393,447.714)">
        </g>
        <text x="452.993px" y="447.714px" style="font-family:'ToppanBunkyuMidashiGothicStdN-ExtraBold', 'Toppan Bunkyu Midashi Gothic', sans-serif;font-weight:900;font-size:50px;">altered</text>
    </g>
    <g transform="matrix(11.2881,0,0,10.5611,-4556.91,-5681.15)">
        <g transform="matrix(50,0,0,50,580.279,624.717)">
        </g>
        <text x="465.729px" y="624.717px" style="font-family:'ToppanBunkyuMidashiGothicStdN-ExtraBold', 'Toppan Bunkyu Midashi Gothic', sans-serif;font-weight:900;font-size:50px;">cr<tspan x="513.379px " y="624.717px ">a</tspan>ft</text>
    </g>
    <g transform="matrix(6.13647,0,0,1.51875,-6423.48,-536.31)">
        <rect x="1326.38" y="670.189" width="14" height="15.623"/>
    </g>
</svg>
